# xmcd CD database file
#
# Track frame offsets:
#	150
#	14050
#	27826
#	43834
#	58533
#	73436
#	88006
#	103262
#	119877
#	135452
#	149403
#	165049
#	181406
#	198607
#
# Disc length: 2850 seconds
#
# Revision: 0
# Processed by: cddbd v1.5.2PL0 Copyright (c) Steve Scherf et al.
# Submitted via: CDex 1.50Beta7
#
DISCID=d50b200e
DTITLE=Truck Stop - Leb' Dein Leben 
DYEAR=2008
DGENRE=Country
TTITLE0=Country Sommernacht
TTITLE1=Cisco Dance
TTITLE2=Fern der Heimat
TTITLE3=Alle meine Ex-Frauen wohn' in Bayern 
TTITLE4=Leb' dein Leben
TTITLE5=Textil des Grauens
TTITLE6=Hamburger Wind
TTITLE7=Aus den Augen, aus dem Sinn
TTITLE8=Rosa von der Raste 
TTITLE9=Es ist schön, so allein
TTITLE10=Wieder auf der Strasse
TTITLE11=Cowboys sterben nicht
TTITLE12=Uns're Heide ist die Prärie
TTITLE13=Der Sheriff hat heute Geburtstag - Radio Version 
EXTD=YEAR: 2008
EXTT0=
EXTT1=
EXTT2=
EXTT3=
EXTT4=
EXTT5=
EXTT6=
EXTT7=
EXTT8=
EXTT9=
EXTT10=
EXTT11=
EXTT12=
EXTT13=
PLAYORDER=
